# Blender v2.78 (sub 0) OBJ File: ''
# www.blender.org
mtllib skybox.mtl
o Cube.001
v -1.000000 -1.000240 -0.999761
v 1.000000 -0.999760 1.000240
v 1.000000 -1.000240 -0.999760
v 0.999999 1.000240 0.999761
v -1.000000 0.999760 -1.000240
v 1.000000 0.999760 -1.000239
v -1.000000 -0.999760 1.000239
v -1.000000 1.000240 0.999760
vt 0.2522 0.9974
vt 0.2532 0.6638
vt 0.4982 0.6650
vt 0.4982 0.3372
vt 0.2520 0.3372
vt 0.2522 0.0041
vt 0.7228 0.6651
vt 0.9972 0.6649
vt 0.7234 0.3372
vt 0.0012 0.3377
vt 0.4986 0.9970
vt 0.4982 0.0046
vt 0.9976 0.3372
vt 0.0010 0.6637
vn -0.0000 -1.0000 0.0002
vn 0.0000 1.0000 -0.0002
vn 1.0000 0.0000 0.0000
vn -0.0000 0.0002 1.0000
vn -1.0000 0.0000 0.0000
vn 0.0000 -0.0002 -1.0000
usemtl Material.001
s 1
f 1/1/1 3/2/1 2/3/1
f 4/4/2 6/5/2 5/6/2
f 2/3/3 3/2/3 6/5/3
f 7/7/4 2/3/4 4/4/4
f 1/8/5 7/7/5 8/9/5
f 5/10/6 6/5/6 3/2/6
f 1/1/1 2/3/1 7/11/1
f 4/4/2 5/6/2 8/12/2
f 2/3/3 6/5/3 4/4/3
f 7/7/4 4/4/4 8/9/4
f 1/8/5 8/9/5 5/13/5
f 5/10/6 3/2/6 1/14/6
